<svg id="Layer_1" enable-background="new 0 0 256 256" height="512" viewBox="0 0 256 256" width="512" xmlns="http://www.w3.org/2000/svg"><g><g><path d="m212.278 249.941h-169.651c-5.644 0-10.219-4.575-10.219-10.219v-223.445c0-5.644 4.575-10.219 10.219-10.219h169.651z" fill="#afafaf"/></g><g><path d="m193.884 234.048h-119.904c-1.381 0-2.5-1.119-2.5-2.5s1.119-2.5 2.5-2.5h117.404v-204.596c0-1.381 1.119-2.5 2.5-2.5s2.5 1.119 2.5 2.5v207.096c0 1.381-1.119 2.5-2.5 2.5zm-129.904 0h-13.178c-1.381 0-2.5-1.119-2.5-2.5s1.119-2.5 2.5-2.5h13.178c1.381 0 2.5 1.119 2.5 2.5s-1.119 2.5-2.5 2.5z" fill="#efefef"/></g><g><path d="m220.781 67.029h-8.504v-60.97h8.504c5.644 0 10.219 4.575 10.219 10.219v40.533c0 5.643-4.575 10.218-10.219 10.218z" fill="#fc5d3d"/></g><g><path d="m220.781 128h-8.504v-60.971h8.504c5.644 0 10.219 4.575 10.219 10.219v40.533c0 5.644-4.575 10.219-10.219 10.219z" fill="#72c1e8"/></g><g><path d="m220.781 188.971h-8.504v-60.971h8.504c5.644 0 10.219 4.575 10.219 10.219v40.533c0 5.644-4.575 10.219-10.219 10.219z" fill="#f0c020"/></g><g><path d="m220.781 249.941h-8.504v-60.971h8.504c5.644 0 10.219 4.575 10.219 10.219v40.533c0 5.644-4.575 10.219-10.219 10.219z" fill="#13bf6d"/></g><g><path d="m99.862 60.159v74.708c-12.651-7.633-21.111-21.5-21.111-37.349s8.461-29.726 21.111-37.359z" fill="#72c1e8"/></g><g><path d="m165.935 97.518c0 15.849-8.461 29.715-21.111 37.349v-74.708c12.65 7.633 21.111 21.51 21.111 37.359z" fill="#72c1e8"/></g><g><path d="m125.071 30.239h-25.209v104.627c6.56 3.955 14.255 6.233 22.481 6.233s15.92-2.279 22.481-6.233v-74.707-10.157c0-10.913-8.849-19.763-19.753-19.763z" fill="#f0c020"/></g><g><path d="m167.42 8.56c1.37 0 2.49-1.12 2.49-2.5s-1.12-2.5-2.49-2.5c-1.38 0-2.5 1.12-2.5 2.5s1.12 2.5 2.5 2.5z"/><path d="m110.85 47.07c-1.38 0-2.5 1.12-2.5 2.5v2.13c0 1.38 1.12 2.5 2.5 2.5s2.5-1.12 2.5-2.5v-2.13c0-1.38-1.12-2.5-2.5-2.5z"/><path d="m122.34 47.07c-1.37 0-2.5 1.12-2.5 2.5v2.13c0 1.38 1.13 2.5 2.5 2.5 1.38 0 2.5-1.12 2.5-2.5v-2.13c0-1.38-1.12-2.5-2.5-2.5z"/><path d="m133.84 47.07c-1.38 0-2.5 1.12-2.5 2.5v2.13c0 1.38 1.12 2.5 2.5 2.5s2.5-1.12 2.5-2.5v-2.13c0-1.38-1.12-2.5-2.5-2.5z"/><path d="m110.85 60.78c-1.38 0-2.5 1.13-2.5 2.5v2.13c0 1.38 1.12 2.5 2.5 2.5s2.5-1.12 2.5-2.5v-2.13c0-1.37-1.12-2.5-2.5-2.5z"/><path d="m122.34 60.78c-1.37 0-2.5 1.12-2.5 2.5v2.13c0 1.38 1.13 2.5 2.5 2.5 1.38 0 2.5-1.12 2.5-2.5v-2.13c0-1.38-1.12-2.5-2.5-2.5z"/><path d="m133.84 60.78c-1.38 0-2.5 1.12-2.5 2.5v2.13c0 1.38 1.12 2.5 2.5 2.5s2.5-1.12 2.5-2.5v-2.13c0-1.38-1.12-2.5-2.5-2.5z"/><path d="m110.85 74.49c-1.38 0-2.5 1.12-2.5 2.5v2.13c0 1.38 1.12 2.5 2.5 2.5s2.5-1.12 2.5-2.5v-2.13c0-1.38-1.12-2.5-2.5-2.5z"/><path d="m122.34 74.49c-1.37 0-2.5 1.12-2.5 2.5v2.13c0 1.38 1.13 2.5 2.5 2.5 1.38 0 2.5-1.12 2.5-2.5v-2.13c0-1.38-1.12-2.5-2.5-2.5z"/><path d="m133.84 74.49c-1.38 0-2.5 1.12-2.5 2.5v2.13c0 1.38 1.12 2.5 2.5 2.5s2.5-1.12 2.5-2.5v-2.13c0-1.38-1.12-2.5-2.5-2.5z"/><path d="m110.85 88.2c-1.38 0-2.5 1.12-2.5 2.5v2.13c0 1.38 1.12 2.5 2.5 2.5s2.5-1.12 2.5-2.5v-2.13c0-1.38-1.12-2.5-2.5-2.5z"/><path d="m122.34 88.2c-1.37 0-2.5 1.12-2.5 2.5v2.13c0 1.38 1.13 2.5 2.5 2.5 1.38 0 2.5-1.12 2.5-2.5v-2.13c0-1.38-1.12-2.5-2.5-2.5z"/><path d="m133.84 88.2c-1.38 0-2.5 1.12-2.5 2.5v2.13c0 1.38 1.12 2.5 2.5 2.5s2.5-1.12 2.5-2.5v-2.13c0-1.38-1.12-2.5-2.5-2.5z"/><path d="m110.85 101.91c-1.38 0-2.5 1.12-2.5 2.5v2.13c0 1.38 1.12 2.5 2.5 2.5s2.5-1.12 2.5-2.5v-2.13c0-1.38-1.12-2.5-2.5-2.5z"/><path d="m122.34 101.91c-1.37 0-2.5 1.12-2.5 2.5v2.13c0 1.38 1.13 2.5 2.5 2.5 1.38 0 2.5-1.12 2.5-2.5v-2.13c0-1.38-1.12-2.5-2.5-2.5z"/><path d="m133.84 101.91c-1.38 0-2.5 1.12-2.5 2.5v2.13c0 1.38 1.12 2.5 2.5 2.5s2.5-1.12 2.5-2.5v-2.13c0-1.38-1.12-2.5-2.5-2.5z"/><path d="m110.85 115.62c-1.38 0-2.5 1.12-2.5 2.5v2.13c0 1.38 1.12 2.5 2.5 2.5s2.5-1.12 2.5-2.5v-2.13c0-1.38-1.12-2.5-2.5-2.5z"/><path d="m122.34 115.62c-1.37 0-2.5 1.12-2.5 2.5v2.13c0 1.38 1.13 2.5 2.5 2.5 1.38 0 2.5-1.12 2.5-2.5v-2.13c0-1.38-1.12-2.5-2.5-2.5z"/><path d="m133.84 115.62c-1.38 0-2.5 1.12-2.5 2.5v2.13c0 1.38 1.12 2.5 2.5 2.5s2.5-1.12 2.5-2.5v-2.13c0-1.38-1.12-2.5-2.5-2.5z"/><path d="m147.32 58.803v-8.803c0-12.27-9.98-22.26-22.25-22.26h-25.21c-1.369 0-2.5 1.114-2.5 2.5v28.564c-13.317 8.616-21.11 23.183-21.11 38.716 0 25.381 20.584 46.08 46.08 46.08v-.05l.02.05c25.498 0 46.09-20.696 46.09-46.08 0-15.278-7.57-29.952-21.12-38.717zm-66.07 38.717c0-12.89 5.87-24.78 16.11-32.63v65.25c-10.24-7.85-16.11-19.74-16.11-32.62zm41.09 41.08c-7 0-13.9-1.79-19.98-5.17 0-10.517 0-89.009 0-100.69h22.71c9.5.02 17.24 7.76 17.25 17.26v83.43c-6.07 3.38-12.98 5.17-19.98 5.17zm41.1-41.08c0 12.88-5.88 24.76-16.12 32.62v-65.25c10.24 7.85 16.12 19.74 16.12 32.63z"/><path d="m145.59 181.59c1.38 0 2.5-1.12 2.5-2.5s-1.12-2.5-2.5-2.5h-46.49c-1.38 0-2.5 1.12-2.5 2.5s1.12 2.5 2.5 2.5z"/><path d="m79.48 198.85c0 1.38 1.12 2.5 2.5 2.5h80.73c1.37 0 2.5-1.12 2.5-2.5s-1.13-2.5-2.5-2.5h-80.73c-1.38 0-2.5 1.12-2.5 2.5z"/><path d="m233.5 56.81v-40.53c0-7.01-5.71-12.72-12.72-12.72h-8.5-34.86c-1.38 0-2.5 1.12-2.5 2.5s1.12 2.5 2.5 2.5h32.36v238.88h-167.15c-4.25-.01-7.71-3.47-7.72-7.72v-28.32h4.91c1.37 0 2.5-1.12 2.5-2.5s-1.13-2.5-2.5-2.5h-4.91v-35.45h4.91c1.37 0 2.5-1.12 2.5-2.5s-1.13-2.5-2.5-2.5h-4.91v-35.45h4.91c1.37 0 2.5-1.12 2.5-2.5s-1.13-2.5-2.5-2.5h-4.91v-35.45h4.91c1.37 0 2.5-1.12 2.5-2.5s-1.13-2.5-2.5-2.5h-4.91v-35.45h4.91c1.37 0 2.5-1.12 2.5-2.5s-1.13-2.5-2.5-2.5h-4.91v-28.32c.01-4.25 3.47-7.71 7.72-7.72h114.79c1.37 0 2.49-1.12 2.49-2.5s-1.12-2.5-2.49-2.5h-114.79c-7.01 0-12.72 5.71-12.72 12.72v28.32h-4.91c-1.38 0-2.5 1.12-2.5 2.5s1.12 2.5 2.5 2.5h4.91v35.45h-4.91c-1.38 0-2.5 1.12-2.5 2.5s1.12 2.5 2.5 2.5h4.91v35.45h-4.91c-1.38 0-2.5 1.12-2.5 2.5s1.12 2.5 2.5 2.5h4.91v35.45h-4.91c-1.38 0-2.5 1.12-2.5 2.5s1.12 2.5 2.5 2.5h4.91v35.45h-4.91c-1.38 0-2.5 1.12-2.5 2.5s1.12 2.5 2.5 2.5h4.91v28.32c0 7.01 5.71 12.72 12.72 12.72h178.15c7.01 0 12.72-5.71 12.72-12.72v-40.53c0-4.188-2.047-7.901-5.182-10.22 3.135-2.32 5.182-6.032 5.182-10.22v-40.53c0-4.188-2.047-7.9-5.182-10.22 3.135-2.32 5.182-6.032 5.182-10.22v-40.53c0-4.188-2.047-7.901-5.182-10.22 3.135-2.32 5.182-6.032 5.182-10.22zm-5 142.38v40.53c-.01 4.25-3.47 7.71-7.72 7.72h-6v-55.97h6c4.25.01 7.71 3.47 7.72 7.72zm0-60.97v40.53c-.01 4.25-3.47 7.71-7.72 7.72h-6v-55.97h6c4.25.01 7.71 3.47 7.72 7.72zm0-60.97v40.53c-.01 4.25-3.47 7.71-7.72 7.72h-6v-55.97h6c4.25.01 7.71 3.47 7.72 7.72zm0-20.44c-.01 4.25-3.47 7.71-7.72 7.72h-6v-55.97h6c4.25.01 7.71 3.47 7.72 7.72z"/></g></g></svg>